<svg width="207" height="108" viewBox="0 0 207 108" fill="none" xmlns="http://www.w3.org/2000/svg">
<path d="M15.291 92.1528C15.291 92.1975 15.2761 92.2273 15.2612 92.272L12.9964 97.4423C12.7133 98.0979 12.4153 98.3959 12.0875 98.53V102.702C12.0875 102.866 11.9683 103 11.8044 103H10.3144C10.1505 103 10.0313 102.866 10.0313 102.702V98.53C9.7035 98.3959 9.4055 98.0979 9.1224 97.4423L6.8725 92.272C6.8576 92.2273 6.8427 92.1826 6.8427 92.1528C6.8427 92.0336 6.9321 91.9293 7.0811 91.9293H8.735C8.8691 91.9293 8.9734 92.0485 9.0181 92.1677L10.8061 96.6079C10.9104 96.8612 10.9998 96.9059 11.0594 96.9059C11.1339 96.9059 11.2233 96.8612 11.3276 96.6079L13.1156 92.1677C13.1603 92.0485 13.2646 91.9293 13.3987 91.9293H15.0377C15.1867 91.9293 15.291 92.0336 15.291 92.1528ZM22.0639 99.4091C22.0639 101.54 20.8421 103.119 18.5028 103.119C16.1635 103.119 14.9417 101.54 14.9417 99.4091V98.2022C14.9417 96.0715 16.1635 94.4921 18.5028 94.4921C20.8421 94.4921 22.0639 96.0715 22.0639 98.2022V99.4091ZM20.0971 99.4091V98.2022C20.0971 96.9804 19.5458 96.1907 18.5028 96.1907C17.4598 96.1907 16.9085 96.9804 16.9085 98.2022V99.4091C16.9085 100.631 17.4598 101.421 18.5028 101.421C19.5458 101.421 20.0971 100.631 20.0971 99.4091ZM30.6346 102.702C30.6346 102.866 30.5005 103 30.3366 103H28.9658C28.8019 103 28.6678 102.866 28.6678 102.702V102.359C27.893 102.866 27.2821 103.104 26.3285 103.104C25.5835 103.104 24.9279 102.911 24.4958 102.479C23.9445 101.927 23.7508 101.003 23.7508 99.7667V94.9093C23.7508 94.7454 23.8849 94.5964 24.0488 94.5964H25.4196C25.5835 94.5964 25.7176 94.7454 25.7176 94.9093V99.7667C25.7176 100.512 25.7772 100.944 26.0603 101.197C26.2689 101.376 26.5222 101.465 26.9841 101.465C27.5354 101.465 28.2506 101.093 28.6678 100.869V94.9093C28.6678 94.7454 28.8019 94.5964 28.9658 94.5964H30.3366C30.5005 94.5964 30.6346 94.7454 30.6346 94.9093V102.702ZM36.8896 95.8629C36.8896 96.0268 36.7555 96.1609 36.5916 96.1609C35.787 96.1609 35.1612 96.3695 34.5354 96.6973V102.687C34.5354 102.851 34.4013 103 34.2374 103H32.8666C32.7027 103 32.5686 102.851 32.5686 102.687V94.8944C32.5686 94.7305 32.7027 94.5964 32.8666 94.5964H34.1629C34.3268 94.5964 34.4609 94.7305 34.4609 94.8944V95.2073C35.191 94.6411 35.9956 94.4921 36.5916 94.4921C36.7555 94.4921 36.8896 94.6262 36.8896 94.7901V95.8629ZM48.6308 102.538C48.6308 102.747 48.4967 102.821 48.303 102.881C48.0795 102.94 47.0961 103.119 45.9488 103.119C44.1608 103.119 41.7321 102.24 41.7321 98.5598V96.3695C41.7321 92.6296 44.1608 91.8101 45.9488 91.8101C47.0961 91.8101 48.0795 91.9889 48.303 92.0485C48.4967 92.1081 48.6308 92.1826 48.6308 92.3912V93.3895C48.6308 93.5683 48.5563 93.7024 48.3328 93.7024C48.3328 93.7024 48.3179 93.7024 48.303 93.7024C47.7815 93.6577 46.7683 93.5832 45.9786 93.5832C44.727 93.5832 43.8181 94.2537 43.8181 96.3695V98.5598C43.8181 100.631 44.727 101.346 45.9786 101.346C46.7683 101.346 47.7815 101.272 48.303 101.227C48.3179 101.227 48.3328 101.227 48.3328 101.227C48.5563 101.227 48.6308 101.361 48.6308 101.54V102.538ZM57.1458 99.4091C57.1458 101.54 55.924 103.119 53.5847 103.119C51.2454 103.119 50.0236 101.54 50.0236 99.4091V98.2022C50.0236 96.0715 51.2454 94.4921 53.5847 94.4921C55.924 94.4921 57.1458 96.0715 57.1458 98.2022V99.4091ZM55.179 99.4091V98.2022C55.179 96.9804 54.6277 96.1907 53.5847 96.1907C52.5417 96.1907 51.9904 96.9804 51.9904 98.2022V99.4091C51.9904 100.631 52.5417 101.421 53.5847 101.421C54.6277 101.421 55.179 100.631 55.179 99.4091ZM69.531 102.687C69.531 102.851 69.3969 103 69.233 103H67.8622C67.6983 103 67.5642 102.851 67.5642 102.687V97.6211C67.5642 96.4738 67.3258 96.1758 66.4914 96.1758C66.2083 96.1758 65.6421 96.2652 65.1057 96.5483C65.1504 96.8761 65.1653 97.2486 65.1653 97.6211V102.687C65.1653 102.851 65.0312 103 64.8673 103H63.4965C63.3326 103 63.1985 102.851 63.1985 102.687V97.6211C63.1985 96.4738 63.0048 96.1758 62.1704 96.1758C61.8575 96.1758 61.4105 96.3397 60.7996 96.6675V102.687C60.7996 102.851 60.6655 103 60.5016 103H59.1308C58.9669 103 58.8328 102.851 58.8328 102.687V94.8944C58.8328 94.7305 58.9669 94.5964 59.1308 94.5964H60.4271C60.591 94.5964 60.7251 94.7305 60.7251 94.8944V95.2073C61.3509 94.805 61.9767 94.4921 62.8558 94.4921C63.7051 94.4921 64.2564 94.7454 64.5991 95.1626C65.359 94.7454 66.0295 94.4921 67.0576 94.4921C69.084 94.4921 69.531 95.8778 69.531 97.6211V102.687ZM78.4211 99.3793C78.4211 101.704 77.2589 103.119 74.86 103.119C74.5024 103.119 73.9809 103.089 73.4296 103.015V105.652C73.4296 105.816 73.2955 105.95 73.1316 105.95H71.7608C71.5969 105.95 71.4628 105.816 71.4628 105.652V95.2818C71.4628 95.0583 71.5224 94.9689 71.8651 94.8795C72.7889 94.6411 73.9064 94.4921 74.86 94.4921C77.2589 94.4921 78.4211 95.9076 78.4211 98.232V99.3793ZM76.4543 99.3793V98.232C76.4543 97.0102 76.1414 96.1013 74.86 96.1013C74.3236 96.1013 73.7127 96.146 73.4296 96.2056V101.406C73.8468 101.465 74.5024 101.51 74.86 101.51C76.1414 101.51 76.4543 100.601 76.4543 99.3793ZM86.2905 102.702C86.2905 102.866 86.1564 103 85.9925 103H84.726C84.5621 103 84.428 102.866 84.428 102.702V102.464C83.7426 102.881 83.0423 103.119 82.3271 103.119C81.0904 103.119 79.7494 102.642 79.7494 100.631V100.571C79.7494 98.8727 80.7924 97.9936 83.385 97.9936H84.3237V97.338C84.3237 96.3695 83.8916 96.1311 83.0125 96.1311C82.0589 96.1311 81.0755 96.1907 80.5838 96.2503C80.554 96.2503 80.5242 96.2503 80.5093 96.2503C80.3603 96.2503 80.2411 96.2056 80.2411 95.997V95.0434C80.2411 94.8795 80.3305 94.7752 80.5242 94.7305C81.1202 94.6113 81.9844 94.4921 83.0125 94.4921C85.1283 94.4921 86.2905 95.4308 86.2905 97.338V102.702ZM84.3237 101.138V99.3048H83.385C82.0291 99.3048 81.7311 99.7369 81.7311 100.571V100.631C81.7311 101.361 82.0589 101.555 82.8039 101.555C83.3403 101.555 83.8916 101.376 84.3237 101.138ZM95.1091 102.687C95.1091 102.851 94.975 103 94.8111 103H93.4403C93.2764 103 93.1423 102.851 93.1423 102.687V97.8297C93.1423 96.5334 93.0231 96.1609 91.8758 96.1609C91.3692 96.1609 90.8179 96.3695 90.1921 96.6973V102.687C90.1921 102.851 90.058 103 89.8941 103H88.5233C88.3594 103 88.2253 102.851 88.2253 102.687V94.8944C88.2253 94.7305 88.3594 94.5964 88.5233 94.5964H89.8196C89.9835 94.5964 90.1176 94.7305 90.1176 94.8944V95.2073C90.9818 94.656 91.548 94.4921 92.5314 94.4921C94.677 94.4921 95.1091 95.9374 95.1091 97.8297V102.687ZM103.668 94.8497C103.668 94.8795 103.668 94.9093 103.653 94.9391L101.165 103.641C100.703 105.265 100.151 105.98 98.125 105.98C97.6333 105.98 96.8883 105.891 96.5456 105.786C96.3817 105.742 96.2327 105.682 96.2327 105.533V104.579C96.2327 104.416 96.3668 104.311 96.5307 104.311C96.5456 104.311 96.5456 104.311 96.5605 104.311C96.9777 104.326 97.827 104.401 98.2442 104.401C98.8849 104.401 99.2127 104.222 99.4213 103.447L99.5405 103H99.317C98.8849 103 98.3485 102.896 98.0207 101.763L96.0688 94.9391C96.0539 94.8944 96.0539 94.8646 96.0539 94.8348C96.0539 94.6858 96.1433 94.5964 96.337 94.5964H97.8419C97.976 94.5964 98.0952 94.7305 98.125 94.8646L99.6299 100.929C99.6895 101.182 99.7491 101.257 99.8385 101.257H99.8534C99.8832 101.257 99.913 101.257 99.9279 101.257C99.9726 101.257 99.9726 101.257 99.9726 101.257L101.582 94.8497C101.612 94.7156 101.731 94.5964 101.88 94.5964H103.4C103.549 94.5964 103.668 94.7156 103.668 94.8497ZM113.346 92.719C113.346 92.8978 113.227 92.9723 113.123 92.9723H112.452C111.737 92.9723 111.573 93.1362 111.573 93.8663V94.5964H113.004C113.168 94.5964 113.302 94.7305 113.302 94.8944V95.7884C113.302 95.9523 113.168 96.0715 113.004 96.0715H111.573V102.687C111.573 102.851 111.439 103 111.275 103H109.919C109.755 103 109.606 102.851 109.606 102.687V96.0715L108.28 95.8629C108.116 95.8331 107.982 95.7437 107.982 95.5798V94.8944C107.982 94.7305 108.116 94.5964 108.28 94.5964H109.606V93.8663C109.606 91.9442 110.635 91.4823 112.184 91.4823C112.542 91.4823 112.795 91.5419 113.078 91.6015C113.197 91.6313 113.346 91.7058 113.346 91.8399V92.719ZM121.096 99.4091C121.096 101.54 119.875 103.119 117.535 103.119C115.196 103.119 113.974 101.54 113.974 99.4091V98.2022C113.974 96.0715 115.196 94.4921 117.535 94.4921C119.875 94.4921 121.096 96.0715 121.096 98.2022V99.4091ZM119.13 99.4091V98.2022C119.13 96.9804 118.578 96.1907 117.535 96.1907C116.492 96.1907 115.941 96.9804 115.941 98.2022V99.4091C115.941 100.631 116.492 101.421 117.535 101.421C118.578 101.421 119.13 100.631 119.13 99.4091ZM127.104 95.8629C127.104 96.0268 126.97 96.1609 126.806 96.1609C126.002 96.1609 125.376 96.3695 124.75 96.6973V102.687C124.75 102.851 124.616 103 124.452 103H123.081C122.918 103 122.783 102.851 122.783 102.687V94.8944C122.783 94.7305 122.918 94.5964 123.081 94.5964H124.378C124.542 94.5964 124.676 94.7305 124.676 94.8944V95.2073C125.406 94.6411 126.21 94.4921 126.806 94.4921C126.97 94.4921 127.104 94.6262 127.104 94.7901V95.8629ZM134.316 102.702C134.316 102.866 134.182 103 134.018 103H132.543C132.379 103 132.245 102.866 132.245 102.702V92.2124C132.245 92.0485 132.379 91.9293 132.543 91.9293H134.018C134.182 91.9293 134.316 92.0485 134.316 92.2124V102.702ZM143.287 102.687C143.287 102.851 143.153 103 142.989 103H141.618C141.454 103 141.32 102.851 141.32 102.687V97.8297C141.32 96.5334 141.201 96.1609 140.053 96.1609C139.547 96.1609 138.996 96.3695 138.37 96.6973V102.687C138.37 102.851 138.236 103 138.072 103H136.701C136.537 103 136.403 102.851 136.403 102.687V94.8944C136.403 94.7305 136.537 94.5964 136.701 94.5964H137.997C138.161 94.5964 138.295 94.7305 138.295 94.8944V95.2073C139.159 94.656 139.726 94.4921 140.709 94.4921C142.855 94.4921 143.287 95.9374 143.287 97.8297V102.687ZM152.105 102.687C152.105 102.851 151.97 103 151.807 103H150.436C150.272 103 150.138 102.851 150.138 102.687V97.8297C150.138 96.5334 150.019 96.1609 148.871 96.1609C148.365 96.1609 147.813 96.3695 147.188 96.6973V102.687C147.188 102.851 147.053 103 146.89 103H145.519C145.355 103 145.221 102.851 145.221 102.687V94.8944C145.221 94.7305 145.355 94.5964 145.519 94.5964H146.815C146.979 94.5964 147.113 94.7305 147.113 94.8944V95.2073C147.977 94.656 148.543 94.4921 149.527 94.4921C151.672 94.4921 152.105 95.9374 152.105 97.8297V102.687ZM160.907 99.4091C160.907 101.54 159.686 103.119 157.346 103.119C155.007 103.119 153.785 101.54 153.785 99.4091V98.2022C153.785 96.0715 155.007 94.4921 157.346 94.4921C159.686 94.4921 160.907 96.0715 160.907 98.2022V99.4091ZM158.941 99.4091V98.2022C158.941 96.9804 158.389 96.1907 157.346 96.1907C156.303 96.1907 155.752 96.9804 155.752 98.2022V99.4091C155.752 100.631 156.303 101.421 157.346 101.421C158.389 101.421 158.941 100.631 158.941 99.4091ZM169.1 94.8348C169.1 94.8646 169.1 94.9093 169.085 94.9391L167.208 101.719C166.91 102.821 166.105 103.119 165.345 103.119C164.585 103.119 163.795 102.821 163.497 101.719L161.62 94.9391C161.605 94.9093 161.605 94.8646 161.605 94.8348C161.605 94.7007 161.709 94.5964 161.844 94.5964H163.334C163.468 94.5964 163.587 94.7007 163.632 94.8944L165.062 101.138C165.122 101.421 165.226 101.51 165.345 101.51C165.464 101.51 165.569 101.421 165.628 101.138L167.059 94.8944C167.103 94.7007 167.237 94.5964 167.371 94.5964H168.861C168.996 94.5964 169.1 94.7007 169.1 94.8348ZM176.316 102.702C176.316 102.866 176.182 103 176.018 103H174.752C174.588 103 174.454 102.866 174.454 102.702V102.464C173.768 102.881 173.068 103.119 172.353 103.119C171.116 103.119 169.775 102.642 169.775 100.631V100.571C169.775 98.8727 170.818 97.9936 173.411 97.9936H174.349V97.338C174.349 96.3695 173.917 96.1311 173.038 96.1311C172.085 96.1311 171.101 96.1907 170.61 96.2503C170.58 96.2503 170.55 96.2503 170.535 96.2503C170.386 96.2503 170.267 96.2056 170.267 95.997V95.0434C170.267 94.8795 170.356 94.7752 170.55 94.7305C171.146 94.6113 172.01 94.4921 173.038 94.4921C175.154 94.4921 176.316 95.4308 176.316 97.338V102.702ZM174.349 101.138V99.3048H173.411C172.055 99.3048 171.757 99.7369 171.757 100.571V100.631C171.757 101.361 172.085 101.555 172.83 101.555C173.366 101.555 173.917 101.376 174.349 101.138ZM182.523 102.747C182.523 102.896 182.433 102.985 182.239 103.015C181.882 103.075 181.554 103.119 181.226 103.119C179.543 103.119 178.857 102.747 178.857 100.75V96.0715L177.457 95.8629C177.293 95.8331 177.159 95.7288 177.159 95.5649V94.8944C177.159 94.7305 177.293 94.5964 177.457 94.5964H178.857V93.3746C178.857 93.2107 178.991 93.1064 179.155 93.0766L180.541 92.8382C180.556 92.8382 180.586 92.8382 180.6 92.8382C180.735 92.8382 180.839 92.9127 180.839 93.0617V94.5964H182.18C182.344 94.5964 182.478 94.7305 182.478 94.8944V95.7735C182.478 95.9374 182.344 96.0715 182.18 96.0715H180.839V100.75C180.839 101.495 180.884 101.584 181.42 101.584H182.21C182.403 101.584 182.523 101.659 182.523 101.808V102.747ZM185.924 93.1809C185.924 93.3448 185.79 93.4789 185.626 93.4789H184.181C184.017 93.4789 183.868 93.3448 183.868 93.1809V91.8697C183.868 91.7058 184.017 91.5717 184.181 91.5717H185.626C185.79 91.5717 185.924 91.7058 185.924 91.8697V93.1809ZM185.879 102.687C185.879 102.851 185.745 103 185.581 103H184.21C184.046 103 183.912 102.851 183.912 102.687V94.8944C183.912 94.7305 184.046 94.5964 184.21 94.5964H185.581C185.745 94.5964 185.879 94.7305 185.879 94.8944V102.687ZM194.723 99.4091C194.723 101.54 193.502 103.119 191.162 103.119C188.823 103.119 187.601 101.54 187.601 99.4091V98.2022C187.601 96.0715 188.823 94.4921 191.162 94.4921C193.502 94.4921 194.723 96.0715 194.723 98.2022V99.4091ZM192.757 99.4091V98.2022C192.757 96.9804 192.205 96.1907 191.162 96.1907C190.119 96.1907 189.568 96.9804 189.568 98.2022V99.4091C189.568 100.631 190.119 101.421 191.162 101.421C192.205 101.421 192.757 100.631 192.757 99.4091ZM203.294 102.687C203.294 102.851 203.16 103 202.996 103H201.625C201.461 103 201.327 102.851 201.327 102.687V97.8297C201.327 96.5334 201.208 96.1609 200.061 96.1609C199.554 96.1609 199.003 96.3695 198.377 96.6973V102.687C198.377 102.851 198.243 103 198.079 103H196.708C196.544 103 196.41 102.851 196.41 102.687V94.8944C196.41 94.7305 196.544 94.5964 196.708 94.5964H198.005C198.169 94.5964 198.303 94.7305 198.303 94.8944V95.2073C199.167 94.656 199.733 94.4921 200.716 94.4921C202.862 94.4921 203.294 95.9374 203.294 97.8297V102.687Z" fill="#E42E21"/>
<path d="M33.937 37.177L21.5021 57.4445C19.932 60.0072 18.5784 61.3067 17.1707 61.8301L14.3192 78.0549C14.2109 78.7046 13.6153 79.228 12.9836 79.228H7.1362C6.61282 79.228 6.25187 78.8129 6.25187 78.2895V78.0549L9.12144 61.8301C7.94835 61.3067 6.95572 60.0253 6.32406 57.4445L1.05414 37.177C1.05414 37.0687 1 36.9965 1 36.8882C1 36.3107 1.46924 35.8414 2.10091 35.8414H8.23711C8.76049 35.8414 9.12144 36.0761 9.28387 36.7799L13.2544 54.1778C13.489 55.1705 13.6695 55.2246 14.0124 55.2246C14.5899 55.2246 14.7162 55.1705 15.2937 54.1778L25.3463 36.7799C25.7614 36.0761 26.2848 35.8414 26.8081 35.8414H33.2872C33.8106 35.8414 34.0994 36.1302 34.0994 36.5994C34.0994 36.7799 34.0452 36.9423 33.9189 37.177H33.937Z" fill="#1A152A"/>
<path d="M52.7787 60.4223L51.9124 65.1508C50.1077 74.7882 44.6212 79.6972 35.453 79.6972C27.512 79.6972 23.7761 74.0844 23.7761 67.9662C23.7761 67.0277 23.8303 66.0892 24.0107 65.1688L24.8951 60.4403C26.6457 50.857 32.2585 45.8939 41.4267 45.8939C49.4218 45.8939 53.1036 51.2721 53.1036 57.3903C53.1036 58.3829 52.9772 59.4297 52.8148 60.4223H52.7787ZM40.2356 52.5355C36.6802 52.5355 33.6301 54.629 32.5834 60.4223L31.699 65.1508C31.5186 66.0892 31.4644 66.9555 31.4644 67.7135C31.4644 71.1606 33.1609 73.0195 36.608 73.0195C40.6868 73.0195 43.2134 70.5651 44.2061 65.1327L45.0724 60.4042C45.2528 59.4658 45.307 58.5995 45.307 57.8415C45.307 54.3944 43.6646 52.5355 40.2356 52.5355Z" fill="#1A152A"/>
<path d="M85.2464 47.5182L79.8682 78.0548C79.7419 78.7045 79.1644 79.2279 78.5327 79.2279H73.5155C72.9379 79.2279 72.5229 78.7586 72.5229 78.1811V78.0728L72.7033 76.8456C69.8338 78.4879 66.6393 79.7693 63.3546 79.7693C58.8066 79.7693 54.5293 77.369 54.5293 70.8899C54.5293 69.5543 54.6376 68.0925 54.9444 66.5765L58.2652 47.5362C58.3915 46.8865 59.0232 46.309 59.6729 46.309H65.0511C65.7008 46.309 65.9896 46.7241 65.9896 47.3016V47.5362L62.6688 66.5765C62.4342 68.0383 62.2537 69.1392 62.2537 70.0777C62.2537 72.5322 63.1381 73.1097 65.8091 73.1097C68.4802 73.1097 71.8731 71.7742 73.4072 71.0162L77.5581 47.5362C77.6845 46.8865 78.262 46.309 78.8937 46.309H84.2719C84.9216 46.309 85.2645 46.7782 85.2645 47.3016V47.5362L85.2464 47.5182Z" fill="#1A152A"/>
<path d="M106.452 72.5502C104.684 72.6585 102.717 72.7488 101.02 72.7488C96.9413 72.7488 94.1259 71.1786 94.1259 65.6921C94.1259 64.5912 94.2342 63.2918 94.4688 61.8299L95.9306 53.2392C97.2662 45.2983 101.417 42.3204 106.326 42.3204C109.412 42.3204 113.401 42.6092 115.368 42.7897H115.476C116.288 42.7897 116.758 42.2663 116.884 41.5624L117.588 37.6461V37.3573C117.588 36.7798 117.173 36.473 116.541 36.3105C115.729 36.0759 111.921 35.3721 107.427 35.3721C100.425 35.3721 90.4261 37.5919 87.7551 53.2392L86.2932 61.8299C86.0586 63.3459 85.8781 64.8078 85.8781 66.0892C85.8781 76.3583 93.4762 79.6971 99.6665 79.6971C104.16 79.6971 108.077 78.9932 109.015 78.7586C109.25 78.6864 109.448 78.6142 109.647 78.524C108.095 76.8636 107.03 74.8062 106.452 72.5502Z" fill="#1A152A"/>
<path d="M130.474 55.3328C130.727 56.0367 130.889 56.8669 130.889 57.8414C130.889 58.5994 130.835 59.4838 130.654 60.4042L129.788 65.1327C128.795 70.565 126.287 73.0195 122.19 73.0195C118.743 73.0195 117.046 71.1426 117.046 67.7135C117.046 66.9555 117.101 66.0712 117.281 65.1507L118.165 60.4223C119.212 54.7012 122.19 52.5896 125.709 52.5354C127.965 50.2434 129.842 48.2581 131.322 46.5075C130.041 46.1105 128.615 45.8759 126.991 45.8759C117.822 45.8759 112.228 50.839 110.477 60.4223L109.593 65.1507C109.412 66.0892 109.358 67.0277 109.358 67.9481C109.358 74.0843 113.094 79.6791 121.035 79.6791C130.203 79.6791 135.69 74.7701 137.494 65.1327L138.361 60.4042C138.541 59.4116 138.649 58.3648 138.649 57.3722C138.649 54.6109 137.891 52.0121 136.357 49.9907C134.643 51.3623 132.712 53.1491 130.474 55.3328Z" fill="#1A152A"/>
<path d="M125.745 52.5354L126.937 51.3623C126.557 51.7413 126.142 52.1384 125.745 52.5354Z" fill="#1A152A"/>
<path d="M203.82 57.0834C187.071 40.3352 187.089 39.6855 203.874 22.9192C203.928 22.8651 203.964 22.7749 203.964 22.7027C203.964 22.6305 203.928 22.5583 203.874 22.4861C203.765 22.3598 203.567 22.3598 203.459 22.4861C195.193 30.7519 190.681 35.0473 186.349 35.0473C183.372 35.0473 180.321 33.0259 176.044 29.0915C165.27 17.6854 167.165 15.2851 181.747 0.702576C181.801 0.648433 181.837 0.576243 181.837 0.486005C181.837 0.395766 181.801 0.341623 181.747 0.269433C181.639 0.143099 181.44 0.143099 181.332 0.269433C173.084 8.53526 168.572 12.8306 164.223 12.8306C159.874 12.8306 155.38 8.51721 147.114 0.269433C147.006 0.143099 146.807 0.143099 146.699 0.269433C146.645 0.323576 146.608 0.395766 146.608 0.486005C146.608 0.576243 146.645 0.648433 146.699 0.702576C154.965 8.9684 159.26 13.4623 159.26 17.8118C159.26 20.7535 157.257 23.7855 153.394 28.0267C148.503 32.6469 145.165 35.0473 141.934 35.0473C137.603 35.0473 133.091 30.7339 124.825 22.4861C124.717 22.3598 124.518 22.3598 124.392 22.4861C124.338 22.5402 124.302 22.6305 124.302 22.7027C124.302 22.7749 124.338 22.8651 124.392 22.9192C132.658 31.1851 136.953 35.697 136.953 40.0284C136.953 44.3598 132.64 48.8718 124.392 57.1376C124.338 57.1917 124.302 57.282 124.302 57.3542C124.302 57.4263 124.338 57.4985 124.392 57.5707C124.518 57.679 124.699 57.679 124.825 57.5707C133.091 49.3049 137.603 45.0096 141.934 45.0096C146.266 45.0096 150.777 49.323 159.043 57.5707C159.097 57.6249 159.17 57.661 159.26 57.661C159.422 57.661 159.567 57.5346 159.567 57.3542C159.567 57.2459 159.513 57.1556 159.422 57.1015C151.193 48.8718 146.897 44.3598 146.897 40.0465C146.897 37.1047 148.901 34.0727 152.763 29.8315C157.654 25.2113 160.992 22.8109 164.223 22.8109C167.183 22.8109 170.251 24.8323 174.528 28.7486C185.303 40.1547 183.408 42.5551 168.825 57.1376C168.771 57.1917 168.735 57.282 168.735 57.3542C168.735 57.4263 168.771 57.4985 168.825 57.5707C168.879 57.6249 168.951 57.661 169.042 57.661C169.132 57.661 169.204 57.6249 169.258 57.5707C177.524 49.3049 182.018 45.0096 186.367 45.0096C190.717 45.0096 195.211 49.323 203.477 57.5707C203.531 57.6249 203.603 57.661 203.693 57.661C203.892 57.661 204 57.5346 204 57.3542C204 57.2459 203.946 57.1556 203.856 57.1015L203.82 57.0834Z" fill="#E42E21"/>
</svg>
